<?xml version="1.0" standalone="no"?>
<!DOCTYPE svg PUBLIC "-//W3C//DTD SVG 20010904//EN"
 "http://www.w3.org/TR/2001/REC-SVG-20010904/DTD/svg10.dtd">
<svg version="1.0" xmlns="http://www.w3.org/2000/svg"
 width="305.000000pt" height="251.000000pt" viewBox="0 0 305.000000 251.000000"
 preserveAspectRatio="xMidYMid meet">
<metadata>
Created by potrace 1.15, written by Peter Selinger 2001-2017
</metadata>
<g transform="translate(0.000000,251.000000) scale(0.100000,-0.100000)"
fill="#000000" stroke="none">
<path d="M2190 2452 c-129 -30 -240 -58 -247 -64 -35 -29 -324 -401 -317 -408
5 -4 107 -74 228 -155 l218 -148 179 179 179 179 -2 236 -3 235 -235 -54z"/>
<path d="M584 2185 c54 -131 242 -535 254 -547 9 -9 197 -149 417 -311 220
-162 400 -299 400 -305 0 -5 -58 -56 -130 -112 -71 -57 -136 -108 -144 -115
-11 -11 14 -44 159 -200 95 -102 176 -182 180 -178 4 4 44 98 89 208 l82 200
330 130 c197 78 331 136 334 145 2 8 27 116 55 240 28 123 52 226 54 227 1 1
84 28 184 60 100 31 182 59 181 62 -1 8 -523 351 -534 351 -6 0 -102 -92 -215
-205 l-205 -204 -415 266 -415 267 -333 16 c-216 10 -331 12 -328 5z"/>
</g>
</svg>
